<?xml version="1.0" encoding="UTF-8" standalone="no"?>
<!-- Created with Inkscape (http://www.inkscape.org/) -->
<svg xmlns:rdf="http://www.w3.org/1999/02/22-rdf-syntax-ns#" xmlns="http://www.w3.org/2000/svg" version="1.1" xmlns:cc="http://creativecommons.org/ns#" xmlns:xlink="http://www.w3.org/1999/xlink" viewBox="0 0 706.9 197.3" xmlns:dc="http://purl.org/dc/elements/1.1/">
 <defs>
  <radialGradient id="radialGradient3705" gradientUnits="userSpaceOnUse" cy="0" cx="0" gradientTransform="matrix(69.952413,0,0,69.952413,-360.74785,-233.90833)" r="1">
   <stop stop-color="#FFF" offset="0"/>
   <stop stop-color="#231f20" offset="1"/>
  </radialGradient>
 </defs>
 <metadata>
  <rdf:RDF>
   <cc:Work rdf:about="">
    <dc:format>image/svg+xml</dc:format>
    <dc:type rdf:resource="http://purl.org/dc/dcmitype/StillImage"/>
    <dc:title/>
   </cc:Work>
  </rdf:RDF>
 </metadata>
 <g transform="translate(419.93051,338.21901)">
  <path d="m39.97-301.5s-32.72,8.429-32.72,8.429-8.431-32.72-8.431-32.72,32.72-8.429,32.72-8.429,8.431,32.72,8.431,32.72z" fill-rule="nonzero" fill="#ed1c24"/>
  <path d="m-38-275.3h-26.78-1.603-2.377s-26.16,84.21-26.16,84.21-29.87-84.21-29.87-84.21h-17.3v-0.0451h-30.25v3.98h18.47v123.3h3.981v-117.3s41.6,117.3,41.6,117.3h3.98s11.52-37.09,11.52-37.09,26.42-85.03,26.42-85.03v122.1h11.91v0.005h30.26v-3.979h-13.79v-123.3z" fill-rule="nonzero" fill="#231f20"/>
  <path d="m-252.9-190.5s18.55-53.34,18.55-53.34,18.55,53.34,18.55,53.34h-37.11zm31.43-87.79h-0.8954-3.981s-9.993,28.73-9.993,28.73-35.35,101.6-35.35,101.6h3.981s13.42-38.58,13.42-38.58h39.88s13.42,38.58,13.42,38.58h24.86s-0.0189-0.0525-0.0189-0.0525h13.43v-3.982h-14.82s-43.94-126.3-43.94-126.3z" fill-rule="nonzero" fill="#231f20"/>
  <path d="m192.7-190.5s18.55-53.34,18.55-53.34,18.55,53.34,18.55,53.34h-37.11zm90.19,38.52h-14.82s-43.94-126.3-43.94-126.3h-0.8948-3.982s-9.99,28.73-9.99,28.73-35.35,101.6-35.35,101.6h3.979s13.42-38.58,13.42-38.58h39.88s13.42,38.58,13.42,38.58h24.86s-0.0171-0.0525-0.0171-0.0525h13.43v-3.982z" fill-rule="nonzero" fill="#231f20"/>
  <path d="m28.59-271.3h16.29v-3.98h-30.25v0.0451h-14.42v123.3h-13.7v3.979h28.17,2.08,28.17v-3.979h-16.35v-119.4z" fill-rule="nonzero" fill="#231f20"/>
  <path d="m121-189.8h18.85c0.05,6.38,0.398,21.02-0.2173,26.04-0.8606,7.004-6.57,11.96-13.57,13.23-17.14,3.126-32.84-2.066-36.24-15-6.071-23.11-3.895-53.04-3.13-79.28,0.4736-16.15,14.21-30.52,31.37-30.16,16.44,0.3406,30.7,12.82,33.02,30.18,0.166,1.234,0.918,4.64,0.918,4.64s7.806-0.0703,7.806-0.0703,0.0305-23.17,0.0305-23.17-2.201-4.089-4.482-5.448c-12.76-7.606-31.06-12.02-50.15-7.791-34.15,7.564-57.47,47.58-43.13,90.58,9.208,27.61,40.78,50.59,77.75,37.28,16.29-5.867,26.48-21.22,27.69-41.02h0.4126v-3.98h-46.93v3.98z" fill-rule="nonzero" fill="#231f20"/>
  <path d="m-292.4-182.5c-16.51,32.13-55.94,44.78-88.06,28.26-32.12-16.51-44.78-55.94-28.26-88.06,16.51-32.12,55.94-44.77,88.06-28.26,32.12,16.52,44.78,55.94,28.26,88.06z" fill-rule="nonzero" fill="#ec008c"/>
  <path d="m-380.5-154.3c0.0288,0.0125,0.0537,0.0299,0.0811,0.0421,0.0299,0.0178,0.0622,0.0305,0.094,0.0476-0.0238-0.0125-0.044-0.0275-0.0678-0.0373-0.036-0.0201-0.0714-0.0348-0.1074-0.0525z" fill-rule="nonzero" fill="#FFF"/>
  <path d="m-401.6-238s-7.318-3.762-7.318-3.762c-4.54,9.026-6.794,18.61-6.974,28.09,0,0,6.559,3.372,6.559,3.372,0.6561-9.237,3.182-18.68,7.733-27.7z" fill-rule="nonzero" fill="#ed1c24"/>
  <path d="m-409.7-184.6c5.751,12.25,15.33,22.8,28.1,29.69-11.11-6.041-19.17-15.81-23.7-27.43,0,0-4.406-2.266-4.406-2.266z" fill-rule="nonzero" fill="#ed1c24"/>
  <path d="m-409.4-210.3s-6.559-3.372-6.559-3.372c-0.1904,10.1,1.973,20.06,6.226,29.12,0,0,4.406,2.266,4.406,2.266-3.347-8.589-4.771-18.18-4.072-28.01z" fill-rule="nonzero" fill="#FFF"/>
  <path d="m-401.4-238.5c4.509-8.769,10.48-16.2,17.35-22.1,0,0-6.622-3.405-6.622-3.405-7.31,5.671-13.53,12.98-18.04,21.75-0.0897,0.1752-0.1678,0.3503-0.2551,0.528,0,0,7.318,3.762,7.318,3.762,0.0885-0.1776,0.1672-0.3528,0.2564-0.528z" fill-rule="nonzero" fill="#FFF"/>
  <path d="m-320.5-270.5c-0.0311-0.0171-0.0616-0.0347-0.0927-0.0525-0.0275-0.0125-0.0549-0.025-0.0824-0.0372,0.0347,0.0171,0.069,0.0347,0.1038,0.0549,0.0238,0.0125,0.0476,0.0201,0.0714,0.0348z" fill-rule="nonzero" fill="#FFF"/>
  <path d="m-359.6-274s-4.575-2.351-4.575-2.351c-9.577,2.049-18.65,6.234-26.48,12.31,0,0,6.622,3.405,6.622,3.405,7.347-6.316,15.72-10.87,24.43-13.36z" fill-rule="nonzero" fill="#ed1c24"/>
  <path d="m-295.5-241s4.88,2.509,4.88,2.509c-5.75-13.22-15.89-24.62-29.63-31.81,0.1898,0.1001,0.3723,0.2106,0.5615,0.3155,11.56,6.323,19.81,16.69,24.19,28.98z" fill-rule="nonzero" fill="#FFF"/>
  <path d="m-321.8-271.1c-13.64-6.671-28.51-8.177-42.35-5.215,0,0,4.575,2.351,4.575,2.351,12.59-3.604,25.87-2.916,37.77,2.864z" fill-rule="nonzero" fill="#FFF"/>
  <path d="m-343.4-150.5s4.71,2.421,4.71,2.421c9.837-1.81,19.21-5.853,27.3-11.88,0,0-6.863-3.529-6.863-3.529-7.592,6.29-16.22,10.72-25.15,12.99z" fill-rule="nonzero" fill="#FFF"/>
  <path d="m-318.3-163.5s6.863,3.529,6.863,3.529c7.606-5.665,14.09-13.07,18.79-22.02,0,0-7.622-3.92-7.622-3.92-4.689,8.952-10.9,16.5-18.03,22.41z" fill-rule="nonzero" fill="#ed1c24"/>
  <path d="m-300-186.4c-0.0904,0.1752-0.188,0.3424-0.2789,0.5151,0,0,7.622,3.92,7.622,3.92,0.0904-0.1752,0.1916-0.3406,0.2802-0.5157,4.509-8.769,6.829-18.08,7.185-27.33,0,0-6.928-3.561-6.928-3.561-0.8026,9.014-3.373,18.2-7.881,26.97z" fill-rule="nonzero" fill="#FFF"/>
  <path d="m-290.6-238.5s-4.88-2.509-4.88-2.509c3.04,8.536,4.212,17.99,3.35,27.64,0,0,6.928,3.561,6.928,3.561,0.3839-9.897-1.491-19.71-5.398-28.69z" fill-rule="nonzero" fill="#ed1c24"/>
  <path d="m-379.4-153.7c-0.1953-0.0921-0.3931-0.1776-0.5841-0.2722,13.24,6.688,27.69,8.439,41.26,5.942,0,0-4.71-2.421-4.71-2.421-12.04,3.066-24.62,2.221-35.96-3.25z" fill-rule="nonzero" fill="#ed1c24"/>
  <path d="m-320.8-270.6c-0.3448-0.1776-0.6952-0.3302-1.041-0.4974,0.3687,0.1801,0.7428,0.3473,1.11,0.5377-0.0238-0.0153-0.0464-0.0275-0.069-0.0403z" fill-rule="nonzero" fill="#FFF"/>
  <path d="m-380.6-154.3c0.0238,0.01,0.0489,0.0195,0.0714,0.0324-0.3668-0.188-0.7202-0.3955-1.082-0.5902,0.3394,0.1825,0.6665,0.3772,1.011,0.5578z" fill-rule="nonzero" fill="#FFF"/>
  <path d="m-387.9-230.9s-13.72-7.053-13.72-7.053c-4.55,9.022-7.076,18.46-7.733,27.7,0,0,12.36,6.353,12.36,6.353,1.513-8.797,4.527-17.99,9.097-27z" fill-rule="nonzero" fill="#FFF"/>
  <path d="m-396.8-177.9s-8.491-4.362-8.491-4.362c4.528,11.62,12.58,21.39,23.7,27.43,0.3619,0.1947,0.7153,0.4022,1.082,0.5902,0.036,0.0177,0.0714,0.0324,0.1074,0.0525-8.486-4.422-14.01-12.95-16.39-23.71z" fill-rule="nonzero" fill="#FFF"/>
  <path d="m-387.6-231.5c4.509-8.772,10.03-16.44,16.09-22.75,0,0-12.47-6.411-12.47-6.411-6.863,5.9-12.84,13.33-17.35,22.1-0.0891,0.1752-0.1678,0.3503-0.2564,0.528,0,0,13.72,7.053,13.72,7.053,0.0879-0.1746,0.1691-0.3522,0.2576-0.5249z" fill-rule="nonzero" fill="#ed1c24"/>
  <path d="m-409.4-210.3c-0.6995,9.835,0.7251,19.42,4.072,28.01,0,0,8.491,4.362,8.491,4.362-1.722-7.751-1.816-16.66-0.2051-26.02,0,0-12.36-6.353-12.36-6.353z" fill-rule="nonzero" fill="#ed1c24"/>
  <path d="m-304-219.5s11.86,6.096,11.86,6.096c0.8618-9.652-0.31-19.1-3.35-27.64,0,0-8.184-4.207-8.184-4.207,1.484,7.736,1.394,16.54-0.3265,25.75z" fill-rule="nonzero" fill="#FFF"/>
  <path d="m-303.6-245.2s8.184,4.207,8.184,4.207c-4.377-12.29-12.62-22.66-24.19-28.98,8.461,4.73,13.86,13.64,16,24.78z" fill-rule="nonzero" fill="#ed1c24"/>
  <path d="m-330-169.5s11.75,6.038,11.75,6.038c7.13-5.908,13.34-13.46,18.03-22.41,0,0-13.11-6.741-13.11-6.741-4.67,8.959-10.39,16.76-16.66,23.11z" fill-rule="nonzero" fill="#FFF"/>
  <path d="m-379.4-153.7c11.34,5.471,23.93,6.316,35.96,3.25,0,0-7.88-4.052-7.88-4.052-9.847,4.192-19.7,4.747-28.08,0.8026z" fill-rule="nonzero" fill="#FFF"/>
  <path d="m-350.8-269.5c10.59-4.874,21.27-5.59,30.19-1.063-0.0348-0.0201-0.069-0.0379-0.1038-0.0549-0.3674-0.1904-0.7416-0.3577-1.11-0.5377-11.91-5.781-25.19-6.468-37.77-2.864,0,0,8.794,4.52,8.794,4.52z" fill-rule="nonzero" fill="#ed1c24"/>
  <path d="m-350.8-269.5s-8.794-4.52-8.794-4.52c-8.71,2.494-17.08,7.043-24.43,13.36,0,0,12.47,6.411,12.47,6.411,6.489-6.758,13.6-11.96,20.75-15.25z" fill-rule="nonzero" fill="#FFF"/>
  <path d="m-313.1-193.2c-0.0904,0.1752-0.1849,0.34-0.2765,0.5151,0,0,13.11,6.741,13.11,6.741,0.091-0.1727,0.1886-0.34,0.2789-0.5151,4.508-8.77,7.078-17.95,7.881-26.97,0,0-11.86-6.096-11.86-6.096-1.605,8.599-4.626,17.55-9.135,26.32z" fill-rule="nonzero" fill="#ed1c24"/>
  <path d="m-351.3-154.5s7.88,4.052,7.88,4.052c8.933-2.276,17.56-6.701,25.15-12.99,0,0-11.75-6.038-11.75-6.038-6.678,6.758-13.98,11.87-21.28,14.98z" fill-rule="nonzero" fill="#ed1c24"/>
  <path d="m-320.2-270.3c-0.001-0.002-0.003-0.002-0.004-0.002h0.001l0.002,0.002z" fill-rule="nonzero" fill="#FFF"/>
  <path d="m-320.4-270.4c-0.0336-0.0177-0.0659-0.0402-0.1014-0.058-0.0195-0.0125-0.0409-0.0171-0.061-0.0275,0.0489,0.025,0.094,0.05,0.1422,0.0751,0.006,0.005,0.014,0.005,0.0201,0.01z" fill-rule="nonzero" fill="#FFF"/>
  <path d="m-380-154c0.001,0.002,0.002,0.002,0.004,0.002h-0.002c-0.001-0.002-0.001-0.002-0.001-0.002z" fill-rule="nonzero" fill="#FFF"/>
  <path d="m-380.3-154.2c0.0195,0.01,0.0385,0.0226,0.0586,0.033,0.036,0.0195,0.0726,0.0324,0.1074,0.05-0.007-0.005-0.0125-0.01-0.0189-0.0129-0.05-0.025-0.0983-0.0451-0.1471-0.0702z" fill-rule="nonzero" fill="#FFF"/>
  <path d="m-380.2-154.1c-0.058-0.0299-0.1154-0.0525-0.1715-0.0824,0.0238,0.01,0.044,0.025,0.0677,0.0373,0.0489,0.025,0.097,0.0451,0.1471,0.0703-0.0159-0.008-0.0299-0.0178-0.0434-0.025z" fill-rule="nonzero" fill="#FFF"/>
  <path d="m-320.1-270.3c0.1575,0.0855,0.3131,0.1752,0.4706,0.2606-0.1892-0.105-0.3717-0.2155-0.5615-0.3155-0.001-0.002-0.003-0.002-0.003-0.002,0.0324,0.0177,0.061,0.0403,0.0934,0.0574z" fill-rule="nonzero" fill="#FFF"/>
  <path d="m-379.9-154c-0.0354-0.0146-0.0702-0.025-0.1025-0.0396h0.002c0.1911,0.0946,0.3888,0.18,0.5841,0.2722-0.1618-0.0775-0.3241-0.1526-0.484-0.2326z" fill-rule="nonzero" fill="#FFF"/>
  <path d="m-320.4-270.4c0.0146,0.007,0.0311,0.0129,0.047,0.0177-0.0482-0.025-0.0934-0.05-0.1422-0.0751-0.0238-0.0146-0.0476-0.0226-0.0714-0.0347,0.0561,0.0299,0.1099,0.0648,0.1666,0.0921z" fill-rule="nonzero" fill="#FFF"/>
  <path d="m-322.7-229.1s18.79,9.66,18.79,9.66c1.721-9.212,1.811-18.02,0.3265-25.75,0,0-13.06-6.716-13.06-6.716-0.9357,6.49-2.993,14.28-6.05,22.81z" fill-rule="nonzero" fill="#ed1c24"/>
  <path d="m-333.8-203.8c-0.0904,0.1752-0.1813,0.3455-0.2704,0.5182,0,0,20.73,10.66,20.73,10.66,0.0916-0.1752,0.1862-0.34,0.2765-0.5151,4.509-8.77,7.53-17.72,9.135-26.32,0,0-18.79-9.66-18.79-9.66-2.854,7.959-6.576,16.55-11.08,25.32z" fill-rule="nonzero" fill="#FFF"/>
  <path d="m-348.6-179.1s18.61,9.57,18.61,9.57c6.273-6.348,11.99-14.15,16.66-23.11,0,0-20.73-10.66-20.73-10.66-4.642,8.974-9.604,17.17-14.54,24.2z" fill-rule="nonzero" fill="#ed1c24"/>
  <path d="m-366.6-220.7c4.509-8.77,9.33-16.8,14.14-23.75,0,0-19.09-9.814-19.09-9.814-6.061,6.313-11.58,13.98-16.09,22.75-0.0885,0.1727-0.1697,0.3504-0.2576,0.5249,0,0,21.04,10.81,21.04,10.81,0.0904-0.1727,0.174-0.3455,0.2637-0.52z" fill-rule="nonzero" fill="#FFF"/>
  <path d="m-316.7-251.9s13.06,6.716,13.06,6.716c-2.139-11.14-7.542-20.05-16-24.78-0.1575-0.0855-0.3131-0.1752-0.4706-0.2606,3.756,2.156,4.775,8.849,3.409,18.32z" fill-rule="nonzero" fill="#FFF"/>
  <path d="m-363.9-161s12.59,6.473,12.59,6.473c7.307-3.112,14.6-8.219,21.28-14.98,0,0-18.61-9.57-18.61-9.57-5.259,7.489-10.48,13.66-15.26,18.07z" fill-rule="nonzero" fill="#FFF"/>
  <path d="m-387.9-230.9c-4.57,9.012-7.584,18.2-9.097,27,0,0,18.92,9.725,18.92,9.725,2.846-8.112,6.619-16.91,11.22-25.91,0,0-21.04-10.81-21.04-10.81z" fill-rule="nonzero" fill="#ed1c24"/>
  <path d="m-351.3-154.5s-12.59-6.473-12.59-6.473c-6.528,6.033-12.21,8.765-15.98,7.043,0.1599,0.08,0.3223,0.155,0.484,0.2326,8.38,3.945,18.24,3.389,28.08-0.8026z" fill-rule="nonzero" fill="#ed1c24"/>
  <path d="m-378.1-194.2s-18.92-9.725-18.92-9.725c-1.611,9.365-1.517,18.27,0.2051,26.02,0,0,12.89,6.628,12.89,6.628,0.8081-6.451,2.786-14.29,5.818-22.93z" fill-rule="nonzero" fill="#FFF"/>
  <path d="m-320.4-270.4c-0.0568-0.0275-0.1105-0.0623-0.1666-0.0921-8.92-4.527-19.61-3.812-30.19,1.063,0,0,13.37,6.871,13.37,6.871,6.972-6.683,13.06-9.75,16.99-7.842z" fill-rule="nonzero" fill="#FFF"/>
  <path d="m-383.9-171.3s-12.89-6.628-12.89-6.628c2.387,10.76,7.908,19.28,16.39,23.71,0.0561,0.0299,0.1135,0.0525,0.1715,0.0824-3.674-2.001-4.788-8.256-3.672-17.16z" fill-rule="nonzero" fill="#ed1c24"/>
  <path d="m-352.5-244.4c5.153-7.443,10.29-13.65,15.03-18.19,0,0-13.37-6.871-13.37-6.871-7.156,3.295-14.26,8.492-20.75,15.25,0,0,19.09,9.814,19.09,9.814z" fill-rule="nonzero" fill="#ed1c24"/>
  <path d="m-380.1-154.1c0.0396,0.0226,0.0836,0.0324,0.1251,0.05-0.0561-0.0275-0.1141-0.05-0.1691-0.0775,0.0153,0.007,0.0286,0.0195,0.044,0.0275z" fill-rule="nonzero" fill="#FFF"/>
  <path d="m-320.3-270.4c-0.0146-0.01-0.0324-0.0125-0.0489-0.0195,0.0561,0.0299,0.1074,0.0623,0.163,0.0921-0.039-0.0226-0.0739-0.0525-0.1141-0.0726z" fill-rule="nonzero" fill="#FFF"/>
  <path d="m-320.2-270.3h-0.001c-0.0555-0.0299-0.1069-0.0623-0.163-0.0921-0.006-0.005-0.0135-0.005-0.0201-0.01,0.0616,0.0354,0.1215,0.0702,0.1843,0.1025z" fill-rule="nonzero" fill="#FFF"/>
  <path d="m-380.2-154.1c0.006,0.002,0.0112,0.007,0.0189,0.0129,0.0549,0.0275,0.1129,0.05,0.1691,0.0775l0.001,0.003c-0.0641-0.0354-0.1276-0.0604-0.1892-0.0928z" fill-rule="nonzero" fill="#FFF"/>
  <path d="m-380.2-154.1c0.0616,0.0324,0.1251,0.0574,0.1892,0.0927,0.0324,0.0146,0.0671,0.025,0.1025,0.0396-0.1116-0.0549-0.224-0.105-0.3351-0.1575,0.0135,0.007,0.0275,0.0178,0.0434,0.025z" fill-rule="nonzero" fill="#FFF"/>
  <path d="m-320.2-270.3c-0.0629-0.0324-0.1226-0.0671-0.1843-0.1025-0.0159-0.005-0.0324-0.01-0.047-0.0178,0.1099,0.058,0.2148,0.1202,0.3247,0.1776-0.0324-0.0171-0.061-0.0396-0.0934-0.0574z" fill-rule="nonzero" fill="#FFF"/>
  <path d="m-378.1-194.2c-3.032,8.634-5.01,16.48-5.818,22.93,0,0,19.98,10.27,19.98,10.27,4.777-4.412,10-10.58,15.26-18.07,0,0-29.43-15.13-29.43-15.13z" fill-rule="nonzero" fill="#ed1c24"/>
  <path d="m-363.9-161s-19.98-10.27-19.98-10.27c-1.116,8.904-0.002,15.16,3.672,17.16,0.1111,0.0525,0.2234,0.1025,0.3351,0.1575,3.765,1.721,9.449-1.01,15.98-7.043z" fill-rule="nonzero" fill="#FFF"/>
  <path d="m-337.4-262.6s20.73,10.66,20.73,10.66c1.365-9.472,0.3461-16.17-3.409-18.32-0.1099-0.0574-0.2148-0.1196-0.3247-0.1776-3.936-1.908-10.02,1.158-16.99,7.842z" fill-rule="nonzero" fill="#ed1c24"/>
  <path d="m-316.7-251.9s-20.73-10.66-20.73-10.66c-4.734,4.542-9.875,10.75-15.03,18.19,0,0,29.7,15.27,29.7,15.27,3.058-8.524,5.115-16.32,6.05-22.81z" fill-rule="nonzero" fill="#FFF"/>
  <path d="m-366.9-220.1s32.76,16.84,32.76,16.84c0.0891-0.1727,0.1801-0.343,0.2704-0.5182,4.508-8.769,8.23-17.36,11.08-25.32,0,0-29.7-15.27-29.7-15.27-4.813,6.954-9.634,14.98-14.14,23.75-0.0897,0.1746-0.1733,0.3473-0.2637,0.52z" fill-rule="nonzero" fill="#ed1c24"/>
  <path d="m-334.1-203.3s-32.76-16.84-32.76-16.84c-4.597,8.999-8.37,17.8-11.22,25.91,0,0,29.43,15.13,29.43,15.13,4.94-7.033,9.902-15.22,14.54-24.2z" fill-rule="nonzero" fill="#FFF"/>
  <path opacity="0.28999" fill="url(#radialGradient3705)" d="m-292.4-182.5c-16.51,32.13-55.94,44.78-88.06,28.26-32.12-16.51-44.78-55.94-28.26-88.06,16.51-32.12,55.94-44.77,88.06-28.26,32.12,16.52,44.78,55.94,28.26,88.06z"/>
 </g>
</svg>
