<?xml version="1.0" encoding="UTF-8" standalone="no"?>
<!-- Created with Inkscape (http://www.inkscape.org/) -->

<svg
   xmlns:dc="http://purl.org/dc/elements/1.1/"
   xmlns:cc="http://creativecommons.org/ns#"
   xmlns:rdf="http://www.w3.org/1999/02/22-rdf-syntax-ns#"
   xmlns:svg="http://www.w3.org/2000/svg"
   xmlns="http://www.w3.org/2000/svg"
   xmlns:xlink="http://www.w3.org/1999/xlink"
   version="1.1"
   width="470.00244"
   height="170.00307"
   viewBox="0.000244 0 470.00244 170.00307"
   id="Layer_1"
   xml:space="preserve"><metadata
   id="metadata923"><rdf:RDF><cc:Work
       rdf:about=""><dc:format>image/svg+xml</dc:format><dc:type
         rdf:resource="http://purl.org/dc/dcmitype/StillImage" /><dc:title></dc:title></cc:Work></rdf:RDF></metadata><defs
   id="defs921"><linearGradient
     id="linearGradient6232"><stop
       id="stop6234"
       style="stop-color:#279e64;stop-opacity:1"
       offset="0" /><stop
       id="stop6236"
       style="stop-color:#146daf;stop-opacity:1"
       offset="1" /></linearGradient><linearGradient
     id="linearGradient6224"><stop
       id="stop6226"
       style="stop-color:#e5e975;stop-opacity:1"
       offset="0" /><stop
       id="stop6228"
       style="stop-color:#e13e28;stop-opacity:1"
       offset="1" /></linearGradient><linearGradient
     x1="766.43481"
     y1="19.913881"
     x2="766.43481"
     y2="-108.08125"
     id="linearGradient6230"
     xlink:href="#linearGradient6224"
     gradientUnits="userSpaceOnUse" /><linearGradient
     x1="699.17328"
     y1="16.676712"
     x2="699.17328"
     y2="-27.783451"
     id="linearGradient6238"
     xlink:href="#linearGradient6232"
     gradientUnits="userSpaceOnUse" /><linearGradient
     x1="699.17328"
     y1="16.676712"
     x2="699.17328"
     y2="-27.783451"
     id="linearGradient6246"
     xlink:href="#linearGradient6232"
     gradientUnits="userSpaceOnUse" /><linearGradient
     x1="766.43481"
     y1="19.913881"
     x2="766.43481"
     y2="-108.08125"
     id="linearGradient6248"
     xlink:href="#linearGradient6224"
     gradientUnits="userSpaceOnUse" /><linearGradient
     x1="699.17328"
     y1="16.676712"
     x2="699.17328"
     y2="-27.783451"
     id="linearGradient6260"
     xlink:href="#linearGradient6232"
     gradientUnits="userSpaceOnUse" /><linearGradient
     x1="766.43481"
     y1="19.913881"
     x2="766.43481"
     y2="-108.08125"
     id="linearGradient6262"
     xlink:href="#linearGradient6224"
     gradientUnits="userSpaceOnUse" /><linearGradient
     x1="699.17328"
     y1="16.676712"
     x2="699.17328"
     y2="-27.783451"
     id="linearGradient6421"
     xlink:href="#linearGradient6232"
     gradientUnits="userSpaceOnUse" /><linearGradient
     x1="766.43481"
     y1="19.913881"
     x2="766.43481"
     y2="-108.08125"
     id="linearGradient6423"
     xlink:href="#linearGradient6224"
     gradientUnits="userSpaceOnUse" /><linearGradient
     x1="699.17328"
     y1="16.676712"
     x2="699.17328"
     y2="-27.783451"
     id="linearGradient6425"
     xlink:href="#linearGradient6232"
     gradientUnits="userSpaceOnUse" /><linearGradient
     x1="766.43481"
     y1="19.913881"
     x2="766.43481"
     y2="-108.08125"
     id="linearGradient6427"
     xlink:href="#linearGradient6224"
     gradientUnits="userSpaceOnUse" /></defs>



<g
   transform="translate(14.125244,36.783706)"
   id="g6391"><g
     transform="translate(-814.55639,86.796992)"
     id="g6286"
     style="fill:#898989;fill-opacity:1"><path
       d="m 965.59072,-48.281229 c -1.7143,0.04534 -2.9683,0.54543 -3.75,1.5 -0.7814,0.954699 -1.5894,2.08557 -2.4062,3.40625 l -30.2188,42.53125 -5.0937,7.15625 c -0.9999,1.5313613 -2.0921,2.9624821 -3.2813,4.28125 -1.1885,1.318781 -2.7123,2.134385 -4.5624,2.4375 -1.0533,0.08661 -2.0456,0.3022 -2.9688,0.625 -0.9231,0.322809 -1.4075,1.092144 -1.4688,2.3125 0.02,0.568403 0.1763,0.966435 0.4688,1.21875 0.084,0.07272 0.1726,0.139942 0.2812,0.1875 l 6.4376,5.5625 c 0.079,0.06219 0.153,0.113944 0.25,0.15625 0.486,0.212577 1.0481,0.304868 1.6874,0.28125 1.75,-0.02362 3.527,-0.11591 5.3126,-0.28125 1.7853,-0.165341 3.5466,-0.257632 5.3437,-0.28125 1.6061,0.01968 3.2379,0.112214 4.8437,0.25 1.6064,0.137783 3.2061,0.199066 4.8126,0.21875 0.7457,0.0098 1.4151,-0.136104 2.0312,-0.46875 0.6161,-0.332645 0.9626,-0.894267 1,-1.6875 -0.051,-0.587213 -0.2593,-1.036311 -0.625,-1.375 l -6.7188,-5.78125 c -0.3509,-0.313619 -0.8373,-0.502477 -1.4687,-0.59375 -1.3192,-0.190713 -2.6498,-0.454067 -3.9687,-0.78125 -0.2952,-0.07316 -0.5476,-0.206591 -0.7813,-0.34375 0.5535,-1.334464 1.3709,-2.8943784 2.5313,-4.71875 1.9838,-3.119769 3.4461,-5.3281014 4.3437,-6.59375 l 18.5625,0 c 0.017,0.3348192 0.045,0.6645508 0.062,1 0.1023,2.0116376 0.1796,4.0120085 0.1875,6 -0.1038,2.772567 -0.838,4.397942 -2.1875,4.875 -1.3496,0.477066 -2.713,0.75535 -4.0625,0.8125 -1.3496,0.05716 -2.0838,0.830916 -2.1875,2.34375 0.016,0.649545 0.2313,1.095741 0.625,1.34375 l 6.6875,5.71875 c 0.3936,0.248008 0.8859,0.355559 1.4688,0.34375 2.6019,-0.02362 5.2179,-0.11591 7.8437,-0.28125 2.6257,-0.165341 5.2419,-0.257632 7.8437,-0.28125 1.7482,0.01575 3.4709,0.07727 5.2188,0.1875 1.7478,0.110225 3.5021,0.171752 5.25,0.1875 0.7833,0.02559 1.4606,-0.07409 2.0312,-0.34375 0.5707,-0.26966 0.8786,-0.846783 0.9063,-1.71875 -0.01,-0.777483 -0.2329,-1.292836 -0.6563,-1.5625 l -6.5312,-5.625 c -0.1263,-0.98912 -0.2023,-2.086944 -0.1875,-3.3125 l -2.4687,-47.125 c 0.01,-1.6986 -0.146,-3.137594 -0.4688,-4.28125 -0.1123,-0.397774 -0.3232,-0.735428 -0.625,-1 l -6.6875,-5.75 c -0.5681,-0.468499 -1.4644,-0.72129 -2.6563,-0.75 z m -10.3124,23.21875 0.5624,16.375 -11.7812,0 11.2188,-16.375 z"
       id="path6185"
       style="font-size:94.48057556px;font-style:italic;font-variant:normal;font-weight:bold;font-stretch:normal;line-height:0%;letter-spacing:0px;word-spacing:0px;fill:#898989;fill-opacity:1;stroke:none;font-family:Garamond Book ITC;-inkscape-font-specification:Garamond Book ITC Bold Italic" /><path
       d="m 1114.0312,-46.3125 c -0.8463,0.004 -1.6773,0.05027 -2.5,0.125 -0.8227,0.07486 -1.6536,0.182898 -2.5,0.28125 -2.0844,0.226419 -4.2002,0.357105 -6.3437,0.40625 -2.1435,0.04927 -4.2745,0.0724 -6.4063,0.0625 -1.5588,-0.01568 -3.1286,-0.07721 -4.6874,-0.1875 -1.559,-0.110164 -3.1287,-0.171691 -4.6876,-0.1875 -0.7419,0.002 -1.3802,0.209747 -1.9687,0.625 -0.5886,0.415378 -0.9041,1.00752 -0.9375,1.8125 0.2677,1.425122 1.3136,2.086664 3.1875,2 1.7626,-0.08141 2.8148,0.649412 3.1563,2.15625 -0.3961,0.397291 -0.6291,0.906365 -0.6563,1.5625 0.067,0.35628 0.1764,0.675706 0.3437,0.9375 -0.063,0.237768 -0.1155,0.486619 -0.1874,0.71875 l -11.9063,41.28125 c -0.4547,1.926996 -0.9703,3.6121002 -1.5313,5.03125 -0.5608,1.419165 -1.8301,2.34995 -3.8437,2.8125 -0.9232,0.135819 -2.008,0.37454 -3.25,0.6875 -1.2421,0.312966 -1.9111,1.028406 -2.0313,2.15625 0.022,0.512226 0.1776,0.896944 0.4733,1.172042 l 5.6296,5.687301 c 0.095,0.102814 0.2065,0.191531 0.3347,0.265657 0.4763,0.275564 1.0306,0.382872 1.625,0.375 2.0333,-0.03149 4.0875,-0.154549 6.1562,-0.375 2.0687,-0.220452 4.1382,-0.343506 6.2188,-0.375 2.2242,0.01968 4.4395,0.112223 6.6874,0.25 2.2479,0.137783 4.4946,0.199066 6.7188,0.21875 0.9152,0.06692 1.9694,0.05191 3.1562,-0.09375 1.1869,-0.145656 1.8252,-0.807442 1.9376,-1.96875 -0.041,-0.572441 -0.2013,-1.019483 -0.479,-1.339877 l -5.7613,-5.796589 c -0.1729,-0.174844 -0.3848,-0.306711 -0.6347,-0.394784 0.03,-0.154128 0.057,-0.313696 0.094,-0.46875 0.1869,-0.783382 0.4102,-1.552719 0.6563,-2.3125 L 1112,-30.65625 c 0.4369,-1.706478 0.9602,-2.945142 1.5625,-3.71875 0.6023,-0.773492 1.7716,-1.319611 3.5313,-1.65625 0.8915,-0.112135 1.8533,-0.366117 2.875,-0.75 1.0215,-0.383763 1.5676,-1.083942 1.6562,-2.09375 -0.014,-0.566814 -0.2062,-0.997748 -0.5625,-1.28125 l -5.6875,-5.71875 c -0.3563,-0.283375 -0.8103,-0.437439 -1.3438,-0.4375 z"
       transform="translate(2.44e-4,0)"
       id="path4781"
       style="font-size:94.48057556px;font-style:normal;font-variant:normal;font-weight:normal;font-stretch:normal;line-height:0%;letter-spacing:0px;word-spacing:0px;fill:#898989;fill-opacity:1;stroke:none;font-family:Flanker;-inkscape-font-specification:Flanker" /><path
       d="m 1002.625,-46.09375 c -0.592,0.02955 -1.1666,0.123592 -1.7188,0.3125 -0.7359,0.252007 -1.13629,0.83676 -1.18745,1.75 0.072,0.35998 0.19615,0.676103 0.37235,0.948412 l 5.5871,8.301941 c -0.1872,0.530581 -0.3701,1.047709 -0.5532,1.530897 -2.301,6.383306 -4.6171,12.761215 -6.90625,19.15625 C 995.92958,-7.6986527 993.56767,-1.336002 991.125,5 c -0.91922,2.7025125 -1.80373,4.6029637 -2.6875,5.6875 -0.88378,1.08455 -2.76897,1.861516 -5.625,2.34375 -0.78732,0.118102 -1.46413,0.364456 -2.0625,0.71875 -0.59837,0.354301 -0.93725,0.969818 -0.96875,1.84375 0.0162,0.455838 0.12345,0.816323 0.31495,1.0814 l 3.80797,5.666613 c 0.13907,0.213443 0.32831,0.370364 0.56458,0.470737 0.52358,0.222424 1.12359,0.306837 1.8125,0.28125 1.65732,-0.01181 3.31906,-0.04233 5,-0.125 1.68094,-0.08267 3.37391,-0.144443 5.03125,-0.15625 1.55696,0.01968 3.07236,0.112214 4.5937,0.25 1.5215,0.137783 3.0529,0.199066 4.5626,0.21875 0.7047,0.0059 1.3662,-0.171046 2,-0.53125 0.6336,-0.360203 0.9879,-0.921581 1.0312,-1.71875 -0.038,-0.478685 -0.1599,-0.876663 -0.3646,-1.194174 l -3.8522,-5.731584 c -0.3631,-0.553275 -0.9807,-0.858843 -1.8457,-0.917992 -1.3648,-0.09331 -2.72907,-0.310987 -4.09375,-0.65625 -0.96668,-0.244554 -1.60787,-0.942128 -1.9375,-2.0625 0.50563,-2.5966968 1.40645,-5.8060801 2.6875,-9.625 1.96885,-5.8693563 4.07115,-11.550003 6.25005,-17.0625 2.1788,-5.512419 4.1328,-10.446166 4.898,-12.354462 l 0.727,40.948212 c -0.026,1.387668 0.1204,2.472273 0.4374,3.28125 0.063,0.161493 0.151,0.307616 0.2631,0.438212 l 3.7568,5.637387 c 0.4229,0.589162 1.2936,0.878004 2.6048,0.893151 1.5608,-0.06102 2.7685,-0.607377 3.6563,-1.625 0.8877,-1.017619 1.7112,-2.132988 2.4687,-3.375 l 21.4063,-31.5 -5.031,18.875 c -0.305,1.617971 -0.7434,3.2646805 -1.3437,4.90625 -0.6004,1.641584 -1.793,2.641528 -3.5625,3.03125 -1.0137,0.07086 -2.1446,0.240186 -3.4062,0.5 -1.2618,0.259823 -1.9463,1.044663 -2.0626,2.34375 0.022,0.698754 0.2601,1.183344 0.7188,1.46875 l 6.25,5.71875 c 0.4586,0.285406 1.0206,0.416089 1.6562,0.40625 2.1771,-0.03149 4.3618,-0.154548 6.5626,-0.375 2.2002,-0.220451 4.3857,-0.343507 6.5624,-0.375 2.2677,0.03149 4.5449,0.154549 6.8126,0.375 2.2672,0.220452 4.5137,0.343506 6.7812,0.375 0.8404,0.02362 1.6181,-0.09919 2.2812,-0.40625 0.6635,-0.307059 0.9938,-0.922577 1.0313,-1.84375 -0.046,-0.640073 -0.249,-1.127556 -0.6071,-1.462922 l -5.917,-5.383681 c 0.056,-0.730608 0.1451,-1.466476 0.3054,-2.215897 0.2518,-1.179012 0.5444,-2.3098826 0.8437,-3.40625 L 1073.0625,-30 c 0.3365,-1.698605 0.7751,-3.014058 1.3125,-3.96875 0.5373,-0.954577 1.6989,-1.546961 3.5,-1.78125 0.9625,-0.05506 1.9089,-0.25514 2.8125,-0.59375 0.9034,-0.338491 1.4039,-1.061805 1.4687,-2.15625 -0.012,-0.608149 -0.2276,-1.046714 -0.5937,-1.3125 l -6.25,-5.71875 c -0.3662,-0.265661 -0.8275,-0.380842 -1.4063,-0.375 -1.9879,0.01187 -3.9884,0.04239 -6,0.125 -2.0116,0.08273 -4.012,0.144502 -6,0.15625 -1.0531,-0.05308 -2.6459,-0.122483 -4.75,-0.1875 -2.104,-0.06489 -3.4964,0.189093 -4.2187,0.75 -0.1378,0.196896 -0.292,0.412241 -0.4063,0.65625 -0.1141,0.244132 -0.2373,0.459478 -0.375,0.65625 L 1029.75,-9.8125 1029,-37.375 c 0.049,-0.734123 0.011,-1.341523 -0.094,-1.875 -0.029,-0.148925 -0.088,-0.278467 -0.1759,-0.388398 L 1025.0618,-45 c -0.025,-0.127824 -0.072,-0.239573 -0.1403,-0.335965 -0.2173,-0.305807 -0.6522,-0.457032 -1.2972,-0.476535 -2.177,0.01581 -4.3619,0.03083 -6.5625,0.09375 -2.2006,0.06305 -4.3856,0.07879 -6.5625,0 -1.2302,-0.05702 -2.438,-0.157426 -3.6562,-0.25 -1.2184,-0.09245 -2.4421,-0.115096 -3.625,-0.125 -0.2018,-0.0079 -0.3965,-0.0099 -0.5938,0 z"
       transform="translate(2.44e-4,0)"
       id="path4779"
       style="font-size:94.48057556px;font-style:italic;font-variant:normal;font-weight:bold;font-stretch:normal;line-height:0%;letter-spacing:0px;word-spacing:0px;fill:#898989;fill-opacity:1;stroke:none;font-family:Garamond Book ITC;-inkscape-font-specification:Garamond Book ITC Bold Italic" /><path
       d="m 1164.5627,-47.15625 c -7.8943,0.01814 -16.1521,1.627676 -24.7813,4.8125 -8.6291,3.184944 -15.9738,7.834058 -22.0624,13.96875 -6.0888,6.134783 -9.2897,13.632387 -9.5626,22.5 0.1149,5.63086994 1.7646,10.2939822 4.9063,13.96875 l 4.4375,5.71875 c 3.1417,3.674786 7.1164,6.423062 11.9062,8.21875 4.7899,1.79569 9.6907,2.693912 14.75,2.6875 3.0824,-0.002 6.1752,-0.194425 9.2813,-0.5625 3.1059,-0.368077 6.1684,-0.914436 9.1563,-1.625 1.1395,-0.230293 2.1166,-0.514795 2.9374,-0.875 0.8207,-0.360201 1.4439,-1.122153 1.875,-2.25 0.8325,-2.367886 1.5944,-4.760554 2.25,-7.1875 0.6553,-2.4269245 1.309,-4.834856 2,-7.25 1.136,-3.4373951 2.4994,-5.46639399 4.0626,-6.0625 1.5628,-0.5959667 2.95,-0.877579 4.1562,-0.84375 1.206,0.033823 1.841,-0.7021466 1.9062,-2.25 -0.018,-0.4230902 -0.1242,-0.7748792 -0.3317,-1.0407256 l -4.5082,-5.7754874 c -0.098,-0.125379 -0.2302,-0.222833 -0.3788,-0.308787 -0.4764,-0.275557 -0.9995,-0.413377 -1.5937,-0.40625 -2.3602,0.02831 -4.722,0.150885 -7.0938,0.34375 -2.3719,0.192923 -4.7803,0.28497 -7.1875,0.3125 -2.2676,-0.02359 -4.5451,-0.115881 -6.8125,-0.28125 -2.2676,-0.165311 -4.5139,-0.257602 -6.7812,-0.28125 -0.758,-0.02162 -1.4889,0.109063 -2.1876,0.40625 -0.6987,0.297244 -1.0758,0.905374 -1.125,1.78125 0.038,0.455202 0.1796,0.8186376 0.4044,1.1071824 l 4.4902,5.7649246 c 0.2933,0.3766221 0.8068,0.5621338 1.4492,0.627893 0.2189,0.022422 0.4373,0.06358 0.6562,0.09375 -0.267,1.47065286 -0.7181,3.2283796 -1.375,5.28125 -0.99,3.0942094 -1.7823,5.5715394 -2.4062,7.4375 -0.3681,1.446719 -0.8527,2.454294 -1.4688,3.0625 -0.616,0.608213 -1.701,0.923965 -3.25,0.90625 -4.2346,-0.09183 -7.691,-1.171939 -10.3437,-3.21875 -1.3369,-2.7859834 -2.0245,-6.0054822 -2.0313,-9.6875 0.043,-4.9365227 1.0588,-9.7218615 3.0626,-14.375 2.0036,-4.653068 4.7428,-8.730601 8.1874,-12.25 3.4032,-3.416953 7.5962,-6.356226 12.5938,-8.78125 4.9975,-2.424911 9.9135,-3.702215 14.7812,-3.8125 0.1702,-0.0017 0.3083,0.02787 0.4688,0.03125 0,0.0767 0,0.140422 0,0.21875 -0.01,0.56693 -0.039,1.120677 -0.094,1.6875 -0.055,0.566928 -0.087,1.151925 -0.094,1.71875 -0.03,0.942874 0.132,1.796872 0.4687,2.5625 0.08,0.182424 0.181,0.344533 0.3023,0.486265 l 4.4604,5.744554 c 0.3885,0.436683 0.9791,0.672891 1.7689,0.706681 1.1554,-0.08853 2.0093,-0.681153 2.5625,-1.75 0.553,-1.068749 0.9608,-2.107572 1.2188,-3.09375 0.246,-0.724289 0.7614,-2.308986 1.5624,-4.78125 0.8011,-2.47215 1.2707,-4.026327 1.375,-4.65625 -0.039,-0.301208 -0.1568,-0.575416 -0.3526,-0.823309 l -4.4461,-5.689865 c -0.4593,-0.605094 -1.378,-1.05579 -2.7634,-1.361826 -1.9358,-0.427426 -3.9588,-0.700119 -6.0938,-0.78125 -2.1352,-0.081 -3.5806,-0.114097 -4.3125,-0.09375 z"
       id="path4795"
       style="font-size:94.48057556px;font-style:italic;font-variant:normal;font-weight:bold;font-stretch:normal;line-height:0%;letter-spacing:0px;word-spacing:0px;fill:#898989;fill-opacity:1;stroke:none;font-family:Garamond Book ITC;-inkscape-font-specification:Garamond Book ITC Bold Italic" /><path
       d="m 1218.6564,-48.28125 c -1.7143,0.04534 -2.9683,0.54543 -3.75,1.5 -0.7814,0.954699 -1.5894,2.08557 -2.4062,3.40625 l -30.2188,42.53125 -5.0937,7.15625 c -0.9999,1.5313613 -2.0921,2.9624821 -3.2813,4.28125 -1.1885,1.318781 -2.7123,2.134385 -4.5624,2.4375 -1.0533,0.08661 -2.0456,0.3022 -2.9688,0.625 -0.9231,0.322809 -1.4075,1.092144 -1.4688,2.3125 0.02,0.568403 0.1763,0.966435 0.4688,1.21875 0.084,0.07272 0.1726,0.139942 0.2812,0.1875 l 6.4376,5.5625 c 0.079,0.06219 0.153,0.113944 0.25,0.15625 0.486,0.212577 1.0481,0.304868 1.6874,0.28125 1.75,-0.02362 3.527,-0.11591 5.3126,-0.28125 1.7853,-0.165341 3.5466,-0.257632 5.3437,-0.28125 1.6061,0.01968 3.2379,0.112214 4.8437,0.25 1.6064,0.137783 3.2061,0.199066 4.8126,0.21875 0.7457,0.0098 1.4151,-0.136104 2.0312,-0.46875 0.6161,-0.332645 0.9626,-0.894267 1,-1.6875 -0.051,-0.587213 -0.2593,-1.036311 -0.625,-1.375 l -6.7188,-5.78125 c -0.3509,-0.313619 -0.8373,-0.502477 -1.4687,-0.59375 -1.3192,-0.190713 -2.6498,-0.454067 -3.9687,-0.78125 -0.2952,-0.07316 -0.5476,-0.206591 -0.7813,-0.34375 0.5535,-1.334464 1.3709,-2.8943784 2.5313,-4.71875 1.9838,-3.119769 3.4461,-5.3281014 4.3437,-6.59375 l 18.5625,0 c 0.017,0.3348192 0.045,0.6645508 0.062,1 0.1023,2.0116376 0.1796,4.0120085 0.1875,6 -0.1038,2.772567 -0.838,4.397942 -2.1875,4.875 -1.3496,0.477066 -2.713,0.75535 -4.0625,0.8125 -1.3496,0.05716 -2.0838,0.830916 -2.1875,2.34375 0.016,0.649545 0.2313,1.095741 0.625,1.34375 l 6.6875,5.71875 c 0.3936,0.248008 0.8859,0.355559 1.4688,0.34375 2.6019,-0.02362 5.2179,-0.11591 7.8437,-0.28125 2.6257,-0.165341 5.2419,-0.257632 7.8437,-0.28125 1.7482,0.01575 3.4709,0.07727 5.2188,0.1875 1.7478,0.110225 3.5021,0.171752 5.25,0.1875 0.7833,0.02559 1.4606,-0.07409 2.0312,-0.34375 0.5707,-0.26966 0.8786,-0.846783 0.9063,-1.71875 -0.01,-0.777483 -0.2329,-1.292836 -0.6563,-1.5625 l -6.5312,-5.625 c -0.1263,-0.98912 -0.2023,-2.086944 -0.1875,-3.3125 l -2.4687,-47.125 c 0.01,-1.6986 -0.146,-3.137594 -0.4688,-4.28125 -0.1123,-0.397774 -0.3232,-0.735428 -0.625,-1 l -6.6875,-5.75 c -0.5681,-0.468499 -1.4644,-0.72129 -2.6563,-0.75 z m -10.3124,23.21875 0.5624,16.375 -11.7812,0 11.2188,-16.375 z"
       id="path4785"
       style="font-size:94.48057556px;font-style:italic;font-variant:normal;font-weight:bold;font-stretch:normal;line-height:0%;letter-spacing:0px;word-spacing:0px;fill:#898989;fill-opacity:1;stroke:none;font-family:Garamond Book ITC;-inkscape-font-specification:Garamond Book ITC Bold Italic" /></g><path
     d="m 164.63439,102.19487 c -0.01,-0.77748 -0.2265,-1.30105 -0.6496,-1.57072 -0.4232,-0.26965 -0.9941,-0.43893 -1.7124,-0.50782 -2.429,-0.397601 -3.8777,-1.326647 -4.3461,-2.787146 -0.4685,-1.460485 -0.6889,-3.334324 -0.6613,-5.62152 l -2.4565,-47.145201 c 0.01,-1.6986 -0.1496,-3.119726 -0.4724,-4.263382 -0.3229,-1.143528 -1.4251,-1.73796 -3.3068,-1.783297 -1.7144,0.04534 -2.9623,0.54529 -3.7437,1.49986 -0.7815,0.954699 -1.5806,2.092387 -2.3974,3.413067 l -30.2334,42.515712 -5.1019,7.180431 c -0.9999,1.531361 -2.0943,2.956424 -3.2832,4.275191 -1.1888,1.318781 -2.7084,2.129728 -4.5586,2.432843 -1.053,0.08661 -2.041101,0.291312 -2.964301,0.614112 -0.9231,0.32281 -1.4152,1.09439 -1.4762,2.31475 0.026,0.73222 0.2814,1.20461 0.7676,1.41719 0.4862,0.21258 1.0491,0.30706 1.6888,0.28344 1.749901,-0.0236 3.517401,-0.1181 5.302701,-0.28344 1.7853,-0.16534 3.5764,-0.25982 5.3735,-0.28344 1.6061,0.0197 3.2123,0.0984 4.8184,0.2362 1.6062,0.13778 3.2123,0.21651 4.8185,0.2362 0.746,0.01 1.427,-0.15157 2.0431,-0.48421 0.6161,-0.33265 0.9428,-0.89558 0.9802,-1.68882 -0.1015,-1.16699 -0.8118,-1.84584 -2.131,-2.03655 -1.3192,-0.190709 -2.6384,-0.449652 -3.9576,-0.776835 -1.3193,-0.327172 -2.0296,-1.278963 -2.1311,-2.855374 0.2362,-1.690779 1.3464,-4.096064 3.3304,-7.215863 1.9841,-3.119769 3.4249,-5.312475 4.3225,-6.578123 l 18.8958,0 c 0.1023,1.98802 0.2047,3.987831 0.3071,5.999437 0.1023,2.011638 0.1574,4.01145 0.1653,5.999441 -0.1038,2.772567 -0.8305,4.397376 -2.18,4.874434 -1.3496,0.477063 -2.6991,0.744173 -4.0486,0.801323 -1.3496,0.0572 -2.0763,0.84215 -2.18,2.35499 0.016,0.64954 0.2204,1.09832 0.6141,1.34633 0.3936,0.24801 0.8818,0.36611 1.4644,0.3543 2.6021,-0.0236 5.216,-0.1181 7.8418,-0.28344 2.6257,-0.16534 5.2396,-0.25982 7.8418,-0.28344 1.7478,0.0157 3.4957,0.0787 5.2436,0.18896 1.7478,0.11022 3.4957,0.17321 5.2436,0.18896 0.7833,0.0256 1.4604,-0.0965 2.0313,-0.36611 0.5707,-0.26966 0.8699,-0.84047 0.8976,-1.71244 z m -23.3364,-24.092234 -15.7781,0 15.0222,-21.919212 z"
     id="path6187"
     style="font-size:94.48057556px;font-style:italic;font-variant:normal;font-weight:bold;font-stretch:normal;line-height:0%;letter-spacing:0px;word-spacing:0px;fill:#000000;fill-opacity:1;stroke:none;font-family:Garamond Book ITC;-inkscape-font-specification:Garamond Book ITC Bold Italic" /><path
     d="m 301.36751,42.200458 c -0.014,-0.566814 -0.1988,-0.991971 -0.5551,-1.275473 -0.3563,-0.283375 -0.8011,-0.425094 -1.3345,-0.425155 -0.8464,0.004 -1.681,0.04337 -2.5037,0.118099 -0.8228,0.07486 -1.6573,0.161466 -2.5037,0.259818 -2.0845,0.226419 -4.1984,0.3642 -6.3419,0.413345 -2.1435,0.04927 -4.2811,0.06895 -6.4128,0.05905 -1.5589,-0.01568 -3.1178,-0.07867 -4.6767,-0.188959 -1.559,-0.110164 -3.1179,-0.17315 -4.6768,-0.188959 -0.742,0.002 -1.4073,0.210675 -1.9958,0.625928 -0.5886,0.415378 -0.8996,1.025556 -0.933,1.830536 0.2677,1.425122 1.3384,2.09435 3.2123,2.007686 1.8738,-0.08655 2.9446,0.7244 3.2123,2.432844 -0.01,0.476387 -0.065,0.964529 -0.1772,1.464428 -0.1122,0.500009 -0.2421,0.988152 -0.3897,1.464432 l -11.9044,41.28748 c -0.4547,1.926996 -0.9625,3.600067 -1.5235,5.019216 -0.5609,1.419165 -1.8482,2.36002 -3.8618,2.82257 -0.9232,0.135816 -2.0057,0.360206 -3.2477,0.673166 -1.2421,0.31297 -1.9231,1.03337 -2.0432,2.16122 0.028,0.65348 0.2795,1.118 0.7559,1.39357 0.4763,0.27556 1.0117,0.40941 1.6061,0.40153 2.0333,-0.0315 4.0843,-0.15746 6.153,-0.37791 2.0687,-0.22046 4.1433,-0.34643 6.2238,-0.37792 2.2242,0.0197 4.4602,0.0984 6.7081,0.2362 2.2478,0.13778 4.4838,0.21651 6.708,0.2362 0.9152,0.0669 1.9663,0.0276 3.1532,-0.11811 1.1869,-0.14565 1.8364,-0.79913 1.9487,-1.96044 -0.087,-1.21073 -0.6999,-1.85459 -1.8371,-1.93158 -1.1373,-0.077 -2.2746,-0.25894 -3.4118,-0.545883 -1.1373,-0.286933 -1.7496,-1.350699 -1.8371,-3.191299 0.01,-0.759763 0.1083,-1.531344 0.2953,-2.314746 0.1869,-0.783382 0.4035,-1.554962 0.6495,-2.314743 l 11.9044,-41.476437 c 0.4369,-1.706478 0.9566,-2.946519 1.5589,-3.720127 0.6023,-0.773492 1.7833,-1.328557 3.543,-1.665196 0.8916,-0.112135 1.8482,-0.360143 2.8698,-0.744026 1.0215,-0.383763 1.5766,-1.080547 1.6652,-2.090355 z"
     id="path4766"
     style="font-size:94.48057556px;font-style:normal;font-variant:normal;font-weight:normal;font-stretch:normal;line-height:0%;letter-spacing:0px;word-spacing:0px;fill:#000000;fill-opacity:1;stroke:none;font-family:Flanker;-inkscape-font-specification:Flanker" /><path
     d="m 363.52101,42.672855 c -0.1336,-1.0188 -1.1683,-1.741976 -3.1038,-2.169528 -1.9358,-0.427426 -3.9712,-0.681703 -6.1062,-0.762834 -2.1352,-0.081 -3.5687,-0.111327 -4.3006,-0.09098 -7.8943,0.01814 -16.156,1.619625 -24.7851,4.804449 -8.6291,3.184944 -15.988,7.844755 -22.0766,13.979447 -6.0887,6.134783 -9.2695,13.635971 -9.5424,22.503585 0.1148,5.63087 1.7432,10.283681 4.8849,13.958449 3.1417,3.674786 7.1075,6.410017 11.8974,8.205707 4.7898,1.79569 9.7144,2.69033 14.7738,2.68392 3.0823,-0.002 6.1765,-0.187 9.2826,-0.55507 3.1059,-0.36808 6.1529,-0.9074 9.1408,-1.61796 1.1396,-0.23029 2.1199,-0.52554 2.9407,-0.88575 0.8207,-0.3602 1.4467,-1.10422 1.8778,-2.23207 0.8325,-2.367885 1.5765,-4.765296 2.2321,-7.192242 0.6553,-2.426924 1.3285,-4.847955 2.0195,-7.263099 1.136,-3.437395 2.4855,-5.45412 4.0486,-6.05018 1.5629,-0.596012 2.9474,-0.877117 4.1536,-0.843316 1.206,0.03385 1.8417,-0.723148 1.907,-2.271002 -0.028,-0.653455 -0.2795,-1.117978 -0.7558,-1.393572 -0.4764,-0.275536 -1.0118,-0.409382 -1.6061,-0.401536 -2.3601,0.02759 -4.726,0.137811 -7.0978,0.330676 -2.3719,0.192923 -4.7614,0.303149 -7.1686,0.330679 -2.2676,-0.02359 -4.5351,-0.118069 -6.8025,-0.283438 -2.2676,-0.165311 -4.5351,-0.25979 -6.8025,-0.283438 -0.7579,-0.02162 -1.4862,0.11616 -2.1849,0.413347 -0.6988,0.297244 -1.0728,0.883803 -1.1219,1.759679 0.09,1.067875 0.7184,1.661577 1.8861,1.781108 1.1675,0.119581 2.3351,0.349364 3.5027,0.68935 1.1675,0.340034 1.7962,1.374641 1.8861,3.103824 -0.1044,1.771507 -0.6516,4.204348 -1.6416,7.298529 -0.9901,3.09421 -1.7971,5.574291 -2.421,7.440251 -0.3681,1.446719 -0.8602,2.47418 -1.4763,3.08239 -0.6161,0.60821 -1.6987,0.90346 -3.2477,0.88574 -5.5369,-0.12006 -9.7216,-1.911231 -12.5539,-5.37351 -2.8325,-3.462263 -4.2536,-7.875232 -4.2634,-13.23892 0.043,-4.936523 1.0668,-9.731347 3.0706,-14.384486 2.0037,-4.653068 4.7278,-8.739295 8.1724,-12.258694 3.4032,-3.416953 7.6036,-6.337938 12.6012,-8.762962 4.9975,-2.424911 9.9301,-3.692508 14.7978,-3.802793 2.3127,-0.02356 3.7339,0.425217 4.2634,1.346331 0.5294,0.921232 0.7459,2.45652 0.6496,4.605869 -0.01,0.56693 -0.039,1.133805 -0.094,1.700628 -0.055,0.566928 -0.087,1.133804 -0.094,1.700629 -0.03,0.942874 0.1239,1.797124 0.4606,2.562752 0.3365,0.765724 1.0333,1.171198 2.0903,1.216422 1.1554,-0.08853 2.0096,-0.667212 2.5628,-1.736059 0.553,-1.068749 0.9585,-2.09621 1.2164,-3.082388 0.246,-0.724289 0.7696,-2.322564 1.5707,-4.794828 0.8011,-2.47215 1.2538,-4.023185 1.3582,-4.653108 z"
     id="path4768"
     style="font-size:94.48057556px;font-style:italic;font-variant:normal;font-weight:bold;font-stretch:normal;line-height:0%;letter-spacing:0px;word-spacing:0px;fill:#000000;fill-opacity:1;stroke:none;font-family:Garamond Book ITC;-inkscape-font-specification:Garamond Book ITC Bold Italic" /><path
     d="m 417.70011,102.19485 c -0.01,-0.77748 -0.2265,-1.30105 -0.6496,-1.57072 -0.4232,-0.26966 -0.9941,-0.43893 -1.7124,-0.50782 -2.429,-0.397602 -3.8777,-1.326648 -4.3461,-2.787147 -0.4685,-1.460485 -0.6889,-3.334324 -0.6613,-5.62152 l -2.4565,-47.145201 c 0.01,-1.6986 -0.1496,-3.119726 -0.4724,-4.263382 -0.3229,-1.143528 -1.4251,-1.73796 -3.3068,-1.783297 -1.7144,0.04534 -2.9623,0.54529 -3.7437,1.49986 -0.7815,0.954699 -1.5806,2.092387 -2.3974,3.413067 l -30.2334,42.515712 -5.1019,7.180431 c -0.9999,1.531361 -2.0943,2.956424 -3.2832,4.275191 -1.1888,1.318781 -2.7084,2.129728 -4.5586,2.432843 -1.053,0.08661 -2.0411,0.291313 -2.9643,0.614113 -0.9231,0.32281 -1.4152,1.09439 -1.4762,2.31475 0.026,0.73221 0.2814,1.20461 0.7676,1.41719 0.4862,0.21258 1.0491,0.30705 1.6888,0.28344 1.7499,-0.0236 3.5174,-0.1181 5.3027,-0.28344 1.7853,-0.16534 3.5764,-0.25982 5.3735,-0.28344 1.6061,0.0197 3.2123,0.0984 4.8184,0.2362 1.6062,0.13778 3.2123,0.21651 4.8185,0.2362 0.746,0.01 1.427,-0.15157 2.0431,-0.48421 0.6161,-0.33265 0.9428,-0.89559 0.9802,-1.68882 -0.1015,-1.16699 -0.8118,-1.84584 -2.131,-2.03655 -1.3192,-0.19071 -2.6384,-0.449653 -3.9576,-0.776836 -1.3193,-0.327172 -2.0296,-1.278963 -2.1311,-2.855374 0.2362,-1.690779 1.3464,-4.096064 3.3304,-7.215863 1.9841,-3.119769 3.4249,-5.312475 4.3225,-6.578123 l 18.8958,0 c 0.1023,1.98802 0.2047,3.987831 0.3071,5.999437 0.1023,2.011638 0.1574,4.01145 0.1653,5.999441 -0.1038,2.772567 -0.8305,4.397376 -2.18,4.874434 -1.3496,0.477064 -2.6991,0.744174 -4.0486,0.801324 -1.3496,0.0572 -2.0763,0.84215 -2.18,2.35499 0.016,0.64954 0.2204,1.09832 0.6141,1.34633 0.3936,0.24801 0.8818,0.36611 1.4644,0.3543 2.6021,-0.0236 5.216,-0.1181 7.8418,-0.28344 2.6257,-0.16534 5.2396,-0.25982 7.8418,-0.28344 1.7478,0.0157 3.4957,0.0787 5.2436,0.18896 1.7478,0.11022 3.4957,0.17321 5.2436,0.18896 0.7833,0.0256 1.4604,-0.0964 2.0313,-0.36611 0.5707,-0.26966 0.8699,-0.84047 0.8976,-1.71244 z m -23.3364,-24.092235 -15.7781,0 15.0222,-21.919212 z"
     id="path4770"
     style="font-size:94.48057556px;font-style:italic;font-variant:normal;font-weight:bold;font-stretch:normal;line-height:0%;letter-spacing:0px;word-spacing:0px;fill:#000000;fill-opacity:1;stroke:none;font-family:Garamond Book ITC;-inkscape-font-specification:Garamond Book ITC Bold Italic" /><path
     d="m 261.32581,42.578375 c -0.012,-0.608149 -0.2008,-1.045115 -0.5669,-1.310901 -0.3662,-0.265661 -0.8386,-0.395569 -1.4172,-0.389727 -1.988,0.01187 -3.9879,0.05911 -5.9994,0.141718 -2.0117,0.08273 -4.0115,0.129972 -5.9994,0.14172 -1.0532,-0.05308 -2.6318,-0.112131 -4.7358,-0.177148 -2.1042,-0.06489 -3.5175,0.183117 -4.2398,0.744024 -0.1378,0.196896 -0.2638,0.417347 -0.3779,0.661356 -0.1142,0.244132 -0.2402,0.464583 -0.3779,0.661355 l -25.9818,39.303414 -1.0393,-38.642058 c 0.049,-0.734123 0.022,-1.367921 -0.083,-1.901398 -0.1043,-0.533352 -0.5807,-0.812853 -1.429,-0.838504 -2.177,0.01581 -4.3657,0.05518 -6.5663,0.1181 -2.2006,0.06305 -4.3894,0.05517 -6.5663,-0.02362 -1.2302,-0.05702 -2.4545,-0.131817 -3.6729,-0.224391 -1.2184,-0.09245 -2.4191,-0.143623 -3.602,-0.153527 -0.807,-0.03143 -1.5786,0.0788 -2.3148,0.330677 -0.7361,0.252007 -1.12979,0.834629 -1.18095,1.747869 0.29915,1.495982 1.49595,2.236069 3.59025,2.220264 2.0942,-0.01569 3.291,0.7244 3.5902,2.220266 -0.034,1.055074 -0.25,2.133712 -0.6496,3.235917 -0.3996,1.102311 -0.7814,2.133711 -1.1455,3.0942 -2.301,6.383306 -4.5961,12.772466 -6.88521,19.167501 -2.28917,6.395098 -4.65509,12.760638 -7.09776,19.09664 -0.91922,2.702512 -1.82071,4.596034 -2.70448,5.68057 -0.88378,1.08455 -2.75368,1.867941 -5.60971,2.350175 -0.78732,0.118102 -1.48017,0.354303 -2.07854,0.708593 -0.59837,0.3543 -0.9133,0.96842 -0.9448,1.84235 0.0276,0.77749 0.30313,1.27744 0.8267,1.49986 0.52358,0.22242 1.12982,0.32084 1.81873,0.29525 1.65732,-0.0118 3.32646,-0.059 5.0074,-0.14172 1.68094,-0.0827 3.35007,-0.12991 5.00741,-0.14172 1.55693,0.0197 3.09615,0.0984 4.61768,0.2362 1.52149,0.13778 3.03708,0.21651 4.54678,0.2362 0.7047,0.006 1.3739,-0.17125 2.0077,-0.53145 0.6338,-0.3602 0.9724,-0.93889 1.0157,-1.73606 -0.105,-1.32504 -0.8399,-2.03421 -2.2045,-2.127532 -1.3648,-0.09331 -2.72947,-0.312596 -4.09415,-0.657859 -1.36472,-0.345253 -2.09955,-1.55832 -2.20452,-3.639203 0.13529,-2.979005 1.1874,-7.4032 3.15631,-13.2726 1.96886,-5.869357 4.04276,-11.560275 6.22166,-17.072772 2.1788,-5.512419 3.6508,-9.222771 4.416,-11.131067 l 1.0393,44.972175 c -0.026,1.387668 0.12,2.485988 0.437,3.294968 0.3168,0.80898 1.2419,1.22233 2.7753,1.24004 1.5608,-0.061 2.7851,-0.60034 3.6729,-1.61796 0.8877,-1.01762 1.7104,-2.147433 2.4682,-3.389445 l 30.2334,-44.499778 -10.0148,37.602785 c -0.3051,1.617971 -0.7578,3.247739 -1.3581,4.889308 -0.6004,1.641584 -1.7853,2.657236 -3.5548,3.046958 -1.0137,0.07086 -2.1514,0.236202 -3.4131,0.496012 -1.2617,0.25983 -1.9506,1.03928 -2.0667,2.33837 0.022,0.69875 0.2617,1.19083 0.7204,1.47624 0.4586,0.2854 1.0058,0.42319 1.6416,0.41335 2.1769,-0.0315 4.3657,-0.15747 6.5663,-0.37792 2.2005,-0.22045 4.3893,-0.34643 6.5663,-0.37792 2.2675,0.0315 4.535,0.15747 6.8025,0.37792 2.2675,0.22045 4.535,0.34642 6.8025,0.37792 0.8404,0.0236 1.5923,-0.1181 2.2557,-0.42516 0.6633,-0.30706 1.0136,-0.92118 1.0511,-1.84235 -0.082,-1.13608 -0.6532,-1.79277 -1.7146,-1.97007 -1.0615,-0.17729 -2.123,-0.428072 -3.1843,-0.752338 -1.0615,-0.324256 -1.6331,-1.27488 -1.7146,-2.851873 0.016,-1.143583 0.1495,-2.304891 0.4015,-3.483925 0.2519,-1.179013 0.5274,-2.316701 0.8267,-3.413068 l 9.6369,-38.642058 c 0.3365,-1.698605 0.7735,-3.025251 1.3109,-3.979943 0.5373,-0.954577 1.7064,-1.549009 3.5075,-1.783298 0.9625,-0.05506 1.8954,-0.251889 2.799,-0.590499 0.9034,-0.338491 1.3876,-1.054958 1.4526,-2.149403 z"
     id="path4764"
     style="font-size:94.48057556px;font-style:italic;font-variant:normal;font-weight:bold;font-stretch:normal;line-height:0%;letter-spacing:0px;word-spacing:0px;fill:#000000;fill-opacity:1;stroke:none;font-family:Garamond Book ITC;-inkscape-font-specification:Garamond Book ITC Bold Italic" /><g
     transform="translate(-814.55639,86.796992)"
     id="text6189"
     style="font-size:60.57981491px;font-style:normal;font-variant:normal;font-weight:normal;font-stretch:normal;line-height:125%;letter-spacing:0px;word-spacing:0px;fill:#000000;fill-opacity:1;stroke:none;font-family:Flanker;-inkscape-font-specification:Flanker"><path
       d="m 1244.2249,23.542103 0,-3.530485 -1.3188,0 0,-0.47237 3.1728,0 0,0.47237 -1.3243,0 0,3.530485 z"
       id="path6194"
       style="font-size:5.59198284px;font-family:Arial;-inkscape-font-specification:Arial" /><path
       d="m 1246.7014,23.542103 0,-0.559745 0.5598,0 0,0.559745 z"
       id="path6196"
       style="font-size:5.59198284px;font-family:Arial;-inkscape-font-specification:Arial" /><path
       d="m 1248.1595,23.542103 0,-4.002855 0.7973,0 0.9475,2.834218 c 0.087,0.263945 0.151,0.461448 0.1911,0.59251 0.046,-0.145624 0.1165,-0.35951 0.213,-0.641659 l 0.9584,-2.785069 0.7126,0 0,4.002855 -0.5106,0 0,-3.350275 -1.1632,3.350275 -0.4778,0 -1.1577,-3.407615 0,3.407615 z"
       id="path6198"
       style="font-size:5.59198284px;font-family:Arial;-inkscape-font-specification:Arial" /><path
       d="m 1252.916,23.542103 0,-0.559745 0.5597,0 0,0.559745 z"
       id="path6200"
       style="font-size:5.59198284px;font-family:Arial;-inkscape-font-specification:Arial" /></g><g
     transform="translate(-662.69325,86.796992)"
     id="g6240"><path
       d="m 687.13676,-31.40625 37.65625,53.875 20.46875,0 -37.65625,-53.875 -20.46875,0 z"
       id="path6207"
       style="color:#000000;fill:url(#linearGradient6421);fill-opacity:1;fill-rule:nonzero;stroke:#000000;stroke-width:0.40000001;stroke-linecap:round;stroke-linejoin:round;stroke-miterlimit:4;stroke-opacity:1;stroke-dasharray:none;stroke-dashoffset:0;marker:none;visibility:visible;display:inline;overflow:visible;enable-background:accumulate" /><path
       d="m 705.74578,-31.40625 37.65625,53.875 1.85973,0 -37.65625,-53.875 z"
       id="path6218"
       style="color:#000000;fill:#000000;fill-opacity:1;fill-rule:nonzero;stroke:#000000;stroke-width:0.30000001;stroke-linecap:round;stroke-linejoin:round;stroke-miterlimit:4;stroke-opacity:1;stroke-dasharray:none;stroke-dashoffset:0;marker:none;visibility:visible;display:inline;overflow:visible;enable-background:accumulate" /><path
       d="m 819.07426,-112.28125 -94.21875,134.75 20.46875,0 94.21875,-134.75 -20.46875,0 z"
       id="path6202"
       style="color:#000000;fill:url(#linearGradient6423);fill-opacity:1;fill-rule:nonzero;stroke:#000000;stroke-width:0.40000001;stroke-linecap:round;stroke-linejoin:round;stroke-miterlimit:4;stroke-opacity:1;stroke-dasharray:none;stroke-dashoffset:0;marker:none;visibility:visible;display:inline;overflow:visible;enable-background:accumulate" /><path
       d="m 837.68328,-112.28125 -94.21875,134.75 1.85973,0 94.21875,-134.75 z"
       id="path6216"
       style="color:#000000;fill:#000000;fill-opacity:1;fill-rule:nonzero;stroke:#000000;stroke-width:0.30000001;stroke-linecap:round;stroke-linejoin:round;stroke-miterlimit:4;stroke-opacity:1;stroke-dasharray:none;stroke-dashoffset:0;marker:none;visibility:visible;display:inline;overflow:visible;enable-background:accumulate" /></g><g
     transform="translate(-686.39837,86.796992)"
     id="g6250"><path
       d="m 687.13676,-31.40625 37.65625,53.875 20.46875,0 -37.65625,-53.875 -20.46875,0 z"
       id="path6252"
       style="color:#000000;fill:url(#linearGradient6425);fill-opacity:1;fill-rule:nonzero;stroke:#000000;stroke-width:0.40000001;stroke-linecap:round;stroke-linejoin:round;stroke-miterlimit:4;stroke-opacity:1;stroke-dasharray:none;stroke-dashoffset:0;marker:none;visibility:visible;display:inline;overflow:visible;enable-background:accumulate" /><path
       d="m 705.74578,-31.40625 37.65625,53.875 1.85973,0 -37.65625,-53.875 z"
       id="path6254"
       style="color:#000000;fill:#000000;fill-opacity:1;fill-rule:nonzero;stroke:#000000;stroke-width:0.30000001;stroke-linecap:round;stroke-linejoin:round;stroke-miterlimit:4;stroke-opacity:1;stroke-dasharray:none;stroke-dashoffset:0;marker:none;visibility:visible;display:inline;overflow:visible;enable-background:accumulate" /><path
       d="m 819.07426,-112.28125 -94.21875,134.75 20.46875,0 94.21875,-134.75 -20.46875,0 z"
       id="path6256"
       style="color:#000000;fill:url(#linearGradient6427);fill-opacity:1;fill-rule:nonzero;stroke:#000000;stroke-width:0.40000001;stroke-linecap:round;stroke-linejoin:round;stroke-miterlimit:4;stroke-opacity:1;stroke-dasharray:none;stroke-dashoffset:0;marker:none;visibility:visible;display:inline;overflow:visible;enable-background:accumulate" /><path
       d="m 837.68328,-112.28125 -94.21875,134.75 1.85973,0 94.21875,-134.75 z"
       id="path6258"
       style="color:#000000;fill:#000000;fill-opacity:1;fill-rule:nonzero;stroke:#000000;stroke-width:0.30000001;stroke-linecap:round;stroke-linejoin:round;stroke-miterlimit:4;stroke-opacity:1;stroke-dasharray:none;stroke-dashoffset:0;marker:none;visibility:visible;display:inline;overflow:visible;enable-background:accumulate" /></g></g></svg>